Coordinates
version=1
nRows=13
nColumns=22
inDegrees=yes

Units are S.I. units (second, meters, Newtons, ...)
If the header above contains a line with 'inDegrees', this indicates whether rotational values are in degrees (yes) or radians (no).

endheader
time	pelvis_tilt	pelvis_list	pelvis_rotation	pelvis_tx	pelvis_ty	pelvis_tz	hip_flexion_r	hip_adduction_r	hip_rotation_r	knee_angle_r	ankle_angle_r	subtalar_angle_r	hip_flexion_l	hip_adduction_l	hip_rotation_l	knee_angle_l	ankle_angle_l	subtalar_angle_l	lumbar_extension	lumbar_bending	lumbar_rotation
      1.46000000	     -0.97082777	     -2.50248443	     -7.21096943	     -1.39690725	      0.93482953	     -0.02324535	     -0.56398265	      3.98866286	     -1.12848803	     -7.53575750	      5.16772575	     -1.70883636	     -0.02562221	     -3.47356573	    -13.15607104	    -11.25953251	      9.37405869	     -0.19073299	     -4.83922637	     -0.50124582	      1.69555499
      1.47000000	     -0.97544302	     -2.50026614	     -7.20243098	     -1.39683340	      0.93482085	     -0.02336243	     -0.56314984	      3.97928537	     -1.12675024	     -7.53563247	      5.16820061	     -1.70913860	     -0.02602031	     -3.46342674	    -13.15992373	    -11.25464411	      9.37489537	     -0.19118769	     -4.83744025	     -0.48518018	      1.69367987
      1.48000000	     -0.99420994	     -2.48791492	     -7.19786728	     -1.39670979	      0.93479205	     -0.02347197	     -0.55761451	      3.96089473	     -1.12249815	     -7.51739289	      5.17338967	     -1.70781689	     -0.02908471	     -3.43978298	    -13.16456077	    -11.21771490	      9.38012201	     -0.19542996	     -4.80840970	     -0.47882342	      1.66219495
      1.49000000	     -0.99833002	     -2.48521622	     -7.19275427	     -1.39660403	      0.93478086	     -0.02358204	     -0.56017416	      3.95072865	     -1.11925915	     -7.51729258	      5.17343169	     -1.70733196	     -0.03083282	     -3.42857404	    -13.16223628	    -11.21724575	      9.37986174	     -0.19607582	     -4.80148574	     -0.46627799	      1.66301526
      1.50000000	     -1.02233535	     -2.46242246	     -7.18873796	     -1.39644822	      0.93474248	     -0.02368396	     -0.56037693	      3.92240208	     -1.09907333	     -7.48004102	      5.17617492	     -1.69712857	     -0.03135918	     -3.39218026	    -13.13811767	    -11.17582961	      9.38211734	     -0.20465491	     -4.75878316	     -0.47713663	      1.64726661
      1.51000000	     -1.02675456	     -2.46069105	     -7.18698742	     -1.39634604	      0.93473081	     -0.02379285	     -0.56248493	      3.91330531	     -1.09610801	     -7.47954177	      5.17575182	     -1.69586687	     -0.03287904	     -3.38181411	    -13.13606198	    -11.17570367	      9.38099821	     -0.20566620	     -4.75564447	     -0.46476147	      1.64802175
      1.52000000	     -1.04563951	     -2.43371659	     -7.18549410	     -1.39621075	      0.93470623	     -0.02389866	     -0.56583912	      3.87937358	     -1.05759543	     -7.44369183	      5.17135492	     -1.66613966	     -0.03941797	     -3.33900669	    -13.10146994	    -11.12905457	      9.36052165	     -0.23034692	     -4.72533700	     -0.48368169	      1.64219457
      1.53000000	     -1.05536642	     -2.42735705	     -7.18206672	     -1.39606831	      0.93468944	     -0.02400511	     -0.57352417	      3.86644707	     -1.05590131	     -7.42401125	      5.17459771	     -1.65594767	     -0.04932617	     -3.32254809	    -13.11075392	    -11.10414244	      9.35847521	     -0.23915822	     -4.70871469	     -0.47852397	      1.63569129
      1.54000000	     -1.06515376	     -2.41439769	     -7.17828830	     -1.39594089	      0.93467567	     -0.02411897	     -0.58312748	      3.84611336	     -1.03956119	     -7.39704409	      5.17656452	     -1.64301656	     -0.06072342	     -3.29724177	    -13.10934553	    -11.07077489	      9.35364408	     -0.24997723	     -4.69685130	     -0.48205904	      1.62983596
      1.55000000	     -1.06947759	     -2.41351874	     -7.17022882	     -1.39583107	      0.93466652	     -0.02423908	     -0.58573312	      3.83855507	     -1.03564077	     -7.39685206	      5.17650724	     -1.64187515	     -0.06397422	     -3.28765190	    -13.11051441	    -11.06804493	      9.35284199	     -0.25087952	     -4.69602559	     -0.47238667	      1.63214695
      1.56000000	     -1.06509713	     -2.38320381	     -7.17417533	     -1.39567009	      0.93467506	     -0.02434036	     -0.61641033	      3.79808685	     -0.98797126	     -7.35834767	      5.18288261	     -1.61415373	     -0.10749966	     -3.23567123	    -13.08430695	    -11.00251448	      9.32510011	     -0.27268632	     -4.69369892	     -0.50059635	      1.63696605
      1.57000000	     -1.06969117	     -2.38311570	     -7.16822304	     -1.39554997	      0.93466352	     -0.02445146	     -0.61996361	      3.79162174	     -0.98649448	     -7.35743452	      5.18368196	     -1.61346263	     -0.11123467	     -3.22766290	    -13.08738874	    -10.99903551	      9.32548850	     -0.27312549	     -4.69336858	     -0.49045910	      1.63800343
      1.58000000	     -1.06942743	     -2.37238815	     -7.16808080	     -1.39536238	      0.93465567	     -0.02453444	     -0.64795608	      3.77450484	     -0.96747127	     -7.32473998	      5.19683109	     -1.60640120	     -0.14366422	     -3.20305940	    -13.08483236	    -10.95609919	      9.33297136	     -0.27671523	     -4.68464193	     -0.49671096	      1.63084189
